<svg width="24" height="25" viewBox="0 0 24 25" fill="none" xmlns="http://www.w3.org/2000/svg">
<path fill-rule="evenodd" clip-rule="evenodd" d="M5.93417 1.56475C5.04769 1.5647 4.28387 1.56466 3.67221 1.6469C3.0167 1.73503 2.38835 1.93377 1.87868 2.44344C1.36902 2.9531 1.17028 3.58145 1.08215 4.23696C0.99991 4.84862 0.999953 5.61244 1 6.49893V18.6306C0.999953 19.5171 0.99991 20.2809 1.08215 20.8925C1.17028 21.5481 1.36902 22.1764 1.87868 22.6861C2.38835 23.1957 3.0167 23.3945 3.67221 23.4826C4.28388 23.5649 5.0477 23.5648 5.9342 23.5648H18.0658C18.9523 23.5648 19.7161 23.5649 20.3278 23.4826C20.9833 23.3945 21.6117 23.1957 22.1213 22.6861C22.631 22.1764 22.8297 21.5481 22.9179 20.8925C23.0001 20.2809 23.0001 19.5171 23 18.6306V6.49895C23.0001 5.61245 23.0001 4.84863 22.9179 4.23696C22.8297 3.58145 22.631 2.9531 22.1213 2.44344C21.6117 1.93377 20.9833 1.73503 20.3278 1.6469C19.7161 1.56466 18.9523 1.5647 18.0658 1.56475H5.93417ZM12 8.56475C11.1716 8.56475 10.5 9.23632 10.5 10.0648C10.5 10.1306 10.4935 10.1963 10.4806 10.2609L10.2198 11.5648H12H13.7802L13.5194 10.2609C13.5065 10.1963 13.5 10.1306 13.5 10.0648C13.5 9.23632 12.8284 8.56475 12 8.56475ZM8.50161 9.9577C8.55819 8.07423 10.1028 6.56475 12 6.56475C13.8972 6.56475 15.4418 8.07423 15.4984 9.9577L15.9806 12.3686C16.0393 12.6624 15.9633 12.9671 15.7733 13.1987C15.5834 13.4304 15.2996 13.5648 15 13.5648H12H9C8.70041 13.5648 8.4166 13.4304 8.22666 13.1987C8.03672 12.9671 7.96066 12.6624 8.01942 12.3686L8.50161 9.9577ZM8.80829 18.1535C9.50224 17.2009 10.6661 16.5648 12 16.5648C13.3339 16.5648 14.4978 17.2009 15.1917 18.1535L16.8083 16.976C15.7409 15.5106 13.9783 14.5648 12 14.5648C10.0217 14.5648 8.25912 15.5106 7.19171 16.976L8.80829 18.1535Z" fill="black"/>
</svg>
