<svg width="24" height="25" viewBox="0 0 24 25" fill="none" xmlns="http://www.w3.org/2000/svg">
<path fill-rule="evenodd" clip-rule="evenodd" d="M12.0002 1.56476C11.0435 1.56476 10.2086 1.90047 9.34759 2.4333C8.52149 2.94451 7.58348 3.69494 6.42746 4.61979L4.20528 6.39744C2.89791 7.44216 1.98875 8.16868 1.49364 9.19881C0.998532 10.2289 0.999166 11.3927 1.00008 13.0662L1.00016 14.5113C1.00013 16.3387 1.00011 17.8375 1.15505 19.0223C1.31438 20.2407 1.65485 21.2905 2.46462 22.1003C3.26718 22.9028 4.27768 23.248 5.47782 23.4094C6.63378 23.5648 8.10355 23.5648 9.92702 23.5648H14.0733C15.8968 23.5648 17.3665 23.5648 18.5225 23.4094C19.7226 23.248 20.7331 22.9028 21.5357 22.1003C22.3455 21.2905 22.6859 20.2407 22.8453 19.0223C23.0002 17.8375 23.0002 16.3387 23.0002 14.5114V14.5113V14.5113L23.0002 13.0662C23.0011 11.3927 23.0018 10.2289 22.5067 9.19882C22.0116 8.16869 21.1024 7.44217 19.7951 6.39746L17.5729 4.61979L17.5728 4.61977L17.5728 4.61974C16.4168 3.69492 15.4788 2.9445 14.6527 2.4333C13.7917 1.90047 12.9568 1.56476 12.0002 1.56476ZM13 13.5648H15V15.5648H13V17.5648H11V15.5648H9V13.5648H11V11.5648H13V13.5648Z" fill="black"/>
</svg>
