<svg width="24" height="25" viewBox="0 0 24 25" fill="none" xmlns="http://www.w3.org/2000/svg">
<path opacity="0.3" d="M5.93417 1.56475C5.04769 1.5647 4.28387 1.56466 3.67221 1.6469C3.0167 1.73503 2.38835 1.93377 1.87868 2.44344C1.36902 2.9531 1.17028 3.58145 1.08215 4.23696C0.99991 4.84862 0.999953 5.61244 1 6.49893V18.6306C0.999953 19.5171 0.99991 20.2809 1.08215 20.8925C1.17028 21.5481 1.36902 22.1764 1.87868 22.6861C2.38835 23.1957 3.0167 23.3945 3.67221 23.4826C4.28388 23.5649 5.0477 23.5648 5.9342 23.5648H18.0658C18.9523 23.5648 19.7161 23.5649 20.3278 23.4826C20.9833 23.3945 21.6117 23.1957 22.1213 22.6861C22.631 22.1764 22.8297 21.5481 22.9179 20.8925C23.0001 20.2809 23.0001 19.5171 23 18.6306V6.49895C23.0001 5.61245 23.0001 4.84863 22.9179 4.23696C22.8297 3.58145 22.631 2.9531 22.1213 2.44344C21.6117 1.93377 20.9833 1.73503 20.3278 1.6469C19.7161 1.56466 18.9523 1.5647 18.0658 1.56475H5.93417Z" fill="black"/>
<path d="M8.50179 9.95769C8.55838 8.07422 10.103 6.56474 12.0002 6.56474C13.8974 6.56474 15.442 8.07422 15.4986 9.95769L15.9808 12.3686C16.0395 12.6624 15.9635 12.967 15.7735 13.1987C15.5836 13.4304 15.2998 13.5647 15.0002 13.5647H9.00019C8.7006 13.5647 8.41679 13.4304 8.22685 13.1987C8.03691 12.967 7.96085 12.6624 8.01961 12.3686L8.50179 9.95769Z" fill="black"/>
<path d="M8.80847 18.1535C9.50242 17.2009 10.6662 16.5647 12.0002 16.5647C13.3341 16.5647 14.4979 17.2009 15.1919 18.1535L16.8085 16.976C15.7411 15.5106 13.9785 14.5647 12.0002 14.5647C10.0219 14.5647 8.2593 15.5106 7.19189 16.976L8.80847 18.1535Z" fill="black"/>
</svg>
