<svg width="24" height="25" viewBox="0 0 24 25" fill="none" xmlns="http://www.w3.org/2000/svg">
<path opacity="0.3" fill-rule="evenodd" clip-rule="evenodd" d="M3.67221 3.1469C4.28387 3.06467 5.04769 3.06471 5.93417 3.06476H18.0658C18.9523 3.06471 19.7161 3.06467 20.3278 3.1469C20.9833 3.23504 21.6117 3.43378 22.1213 3.94344C22.631 4.4531 22.8297 5.08146 22.9179 5.73697C23.0001 6.34864 23.0001 7.11246 23 7.99896V14.1306C23 14.5179 22.5512 14.7462 22.2037 14.5753C21.5389 14.2484 20.7909 14.0648 20 14.0648C17.5788 14.0648 15.5595 15.7857 15.0987 18.0711C14.9896 18.6125 14.5523 19.0648 14 19.0648L5.93417 19.0648C5.04769 19.0648 4.28387 19.0649 3.67221 18.9826C3.0167 18.8945 2.38835 18.6957 1.87868 18.1861C1.36902 17.6764 1.17028 17.0481 1.08215 16.3926C0.99991 15.7809 0.999953 15.0171 1 14.1306V7.99893C0.999953 7.11245 0.99991 6.34863 1.08215 5.73697C1.17028 5.08146 1.36902 4.4531 1.87868 3.94344C2.38835 3.43378 3.0167 3.23504 3.67221 3.1469Z" fill="black"/>
<path fill-rule="evenodd" clip-rule="evenodd" d="M23 10.0648H1V8.06476H23V10.0648ZM8 15.0648H5V13.0648H8V15.0648ZM21 20.0648V22.0648H19V20.0648H17V18.0648H19V16.0648H21V18.0648H23V20.0648H21Z" fill="black"/>
</svg>
