<svg width="24" height="25" viewBox="0 0 24 25" fill="none" xmlns="http://www.w3.org/2000/svg">
<path d="M5.93417 3.06476C5.04769 3.06471 4.28387 3.06467 3.67221 3.1469C3.0167 3.23504 2.38835 3.43378 1.87868 3.94344C1.36902 4.4531 1.17028 5.08146 1.08215 5.73697C0.99991 6.34863 0.999953 7.11245 1 7.99893V8.06476H23V7.99896C23.0001 7.11246 23.0001 6.34864 22.9179 5.73697C22.8297 5.08146 22.631 4.4531 22.1213 3.94344C21.6117 3.43378 20.9833 3.23504 20.3278 3.1469C19.7161 3.06467 18.9523 3.06471 18.0658 3.06476H5.93417Z" fill="black"/>
<path fill-rule="evenodd" clip-rule="evenodd" d="M1 14.1306V10.0648H23C23 10.5833 23.0019 11.102 23.0038 11.6207C23.0056 12.1127 23.0074 12.6048 23.0075 13.0969C23.0078 13.9143 22.0277 14.4199 21.2355 14.2186C20.8403 14.1181 20.4264 14.0648 20 14.0648C17.5788 14.0648 15.5595 15.7857 15.0987 18.0711C14.9896 18.6125 14.5523 19.0648 14 19.0648L5.93417 19.0648C5.04769 19.0648 4.28387 19.0649 3.67221 18.9826C3.0167 18.8945 2.38835 18.6957 1.87868 18.1861C1.36902 17.6764 1.17028 17.0481 1.08215 16.3926C0.99991 15.7809 0.999953 15.0171 1 14.1306ZM8 15.0648H5V13.0648H8V15.0648Z" fill="black"/>
<path d="M19 20.0648H17V18.0648H19V16.0648H21V18.0648H23V20.0648H21V22.0648H19V20.0648Z" fill="black"/>
</svg>
